# xmcd
#
# Track frame offsets:
#	150
#	14065
#	26100
#	39825
#	55018
#	69765
#	85648
#	100168
#	111645
#	124530
#	138339
#	152976
#	169351
#	182826
#
# Disc length: 2598 seconds
#
# Revision: 1
# Processed by: cddbd v1.5.2PL0 Copyright (c) Steve Scherf et al.
# Submitted via: EZCDAudioConverter 5.0.4.1
#
DISCID=b80a240e
DTITLE=Various Artist - Forever Gentlemen, Vol. 2
DYEAR=2014
DGENRE=Pop/Rock
TTITLE0=Claire Keim/Corneille/Roch Voisine - L-O-V-E
TTITLE1=Damien Sargue/Antoine Duléry/Dany Brillant - Grands boulevards
TTITLE2=Ben l'Oncle Soul/Paul Anka - That's Life
TTITLE3=Vincent Niclo/Roch Voisine - La mer
TTITLE4=Tal/Corneille - Cheek to Cheek
TTITLE5=Philippe Lellouche/Damien Sargue/Dany Brillant - Mes emmerdes
TTITLE6=Claire Keim/Paul Anka - Que reste-t-il de nos amours?/I Wish You Love
TTITLE7=Corneille/Sinclair - Ain't That a Kick in the Head
TTITLE8=Damien Sargue/Dany Brillant/Roch Voisine - Syracuse
TTITLE9=Roch Voisine/Paul Anka - Strangers in the Night
TTITLE10=Ben l'Oncle Soul/Sinclair - C'est si bon
TTITLE11=Bruce Johnson/Sofia Essaïdi/Dany Brillant - Everybody Loves Somebody
TTITLE12=Camille Lou/Amir - Le soleil de ma vie
TTITLE13=Sofia Essaïdi/Roch Voisine - Misty
EXTD=
EXTT0=
EXTT1=
EXTT2=
EXTT3=
EXTT4=
EXTT5=
EXTT6=
EXTT7=
EXTT8=
EXTT9=
EXTT10=
EXTT11=
EXTT12=
EXTT13=
PLAYORDER=
